# xmcd
#
# Track frame offsets: 
#        150
#        47559
#        89823
#        111348
#        154913
#        201026
#        237374
#        255099
#        296025
#        326136
#        343821
#
# Disc length: 4801 seconds
#
# Revision: 10
# Processed by: cddbd v1.5.2PL0 Copyright (c) Steve Scherf et al.
# Submitted via: ExactAudioCopy v1.0b3
#
DISCID=a412bf0b
DTITLE=Various Artist - Beethoven Edition cd 44 - Music for String En
DTITLE=sembles  I
DYEAR=2004
DGENRE=Chamber Music
TTITLE0=Zurich String Quintet - String Quintet in C  Op.29 - I. Allegr
TTITLE0=o moderato
TTITLE1=Zurich String Quintet - String Quintet in C  Op.29 - II. Adagi
TTITLE1=o molto espressivo
TTITLE2=Zurich String Quintet - String Quintet in C  Op.29 - III. Sche
TTITLE2=rzo, allegro
TTITLE3=Zurich String Quintet - String Quintet in C  Op.29 - IV. Prest
TTITLE3=o
TTITLE4=Zurich String Quintet - String Quintet in C minor Op.104 - I. 
TTITLE4=Allegro con brio
TTITLE5=Zurich String Quintet - String Quintet in C minor Op.104 - II.
TTITLE5=Andante cantabile con variazioni
TTITLE6=Zurich String Quintet - String Quintet in C minor Op.104 - III
TTITLE6=Menuetto, quasi allegro
TTITLE7=Zurich String Quintet - String Quintet in C minor Op.104 - IV.
TTITLE7=Finale, presto
TTITLE8=Suske Quartet - String Quartet in F  after Piano Sonata in E  
TTITLE8=Op.14 No.1 - I. Allegro moderato
TTITLE9=Suske Quartet - String Quartet in F  after Piano Sonata in E  
TTITLE9=Op.14 No.1 - II. Allegretto
TTITLE10=Suske Quartet - String Quartet in F  after Piano Sonata in E 
TTITLE10=Op.14 No.1 - III. Allegro
EXTD=YEAR: 2004
EXTT0=
EXTT1=
EXTT2=
EXTT3=
EXTT4=
EXTT5=
EXTT6=
EXTT7=
EXTT8=
EXTT9=
EXTT10=
PLAYORDER=
